<?xml version="1.0" encoding="UTF-8"?>
<svg id="Apple" xmlns="http://www.w3.org/2000/svg" viewBox="0 0 362.3 362.3">
  <defs>
    <style>
      .cls-1 {
        fill: #fff;
      }
    </style>
  </defs>
  <path class="cls-1" d="m181.15,12.28c-91.43.02-165.53,74.14-165.51,165.57,0,29.12,7.69,57.72,22.28,82.92h0l-22.5,86.13,87.55-23.19h0c80.58,43.16,180.9,12.82,224.06-67.76,43.16-80.58,12.82-180.9-67.76-224.06-24.03-12.87-50.86-19.6-78.12-19.61Zm97.34,262.87c-45.79,45.77-117.27,53.47-171.76,18.51l-50.86,13.49,13-49.68c-44-62.01-29.4-147.94,32.61-191.95,62.01-44,147.94-29.4,191.95,32.61,38.85,54.75,32.54,129.55-14.93,177.02Z"/>
  <path class="cls-1" d="m264.09,221.15c0,2.72-.22,5.44-.69,8.12-.44,2.72-1.11,5.39-2,8-2.05,5.79-13.25,12.88-13.25,12.88-7.96,5.3-17.47,7.76-27,7-2.23-.23-4.45-.58-6.65-1.06-3.72-.83-5.53-1.36-5.53-1.36-1.8-.53-6.47-2-6.47-2-4.67-1.46-5.72-1.74-5.72-1.74-7.09-2.13-13.97-4.93-20.53-8.37-15.13-8.22-31.61-22.95-31.61-22.95-9.76-8.67-18.58-18.35-26.32-28.86-4.12-6.15-7.67-12.67-10.6-19.47-.4-1-2.37-5.49-2.37-5.49-2-4.48-2.7-6.21-2.7-6.21-.72-1.74-2-5.34-2-5.34-.73-2.12-1.33-4.29-1.79-6.49-.37-1.98-.62-3.99-.74-6-.58-10.52,4.65-21.59,4.65-21.59,5.75-11.9,11.33-14.62,11.33-14.62,2.5-1.13,5.07-2.07,7.7-2.83,2.6-.81,5.29-1.34,8-1.6.81-.08,1.63,0,2.42.21,2.1.57,6.55,8.35,6.55,8.35,1.38,2.1,3.77,6,3.77,6,2.4,3.88,4.41,7,4.41,7,2,3.15,3.88,5.91,3.88,5.91.37.44,2.16,2.75,2.16,2.75.98,1.24,1.88,2.55,2.68,3.92.55.99.89,2.08,1,3.21.12,2.29-2.94,5.9-2.94,5.9-2.08,2.39-4.33,4.62-6.74,6.68-2.38,2.02-4.63,4.17-6.75,6.46-3.08,3.38-3,5.44-3,5.44.12.87.36,1.73.71,2.54.66,1.51,1.11,2.29,1.11,2.29.44.77,1.75,2.65,1.75,2.65,1.31,1.88,1.43,2.1,1.43,2.1,6.04,9.44,13.22,18.08,21.39,25.75,11.83,10.58,28,18.39,28,18.39.24.1,2.25,1.19,2.25,1.19,2,1.1,2.83,1.45,2.83,1.45.82.36,2.4.84,2.4.84.84.29,1.72.43,2.6.43,2.06-.11,5.08-3.55,5.08-3.55,2.03-2.36,3.92-4.84,5.66-7.43,1.78-2.62,3.75-5.1,5.89-7.43,3.25-3.45,5.54-3.58,5.54-3.58,1.13,0,2.25.2,3.3.62,1.44.66,2.84,1.4,4.19,2.23,2.5,1.52,3,1.84,3,1.84,3,1.56,6.32,3.2,6.32,3.2,3.36,1.65,7.48,3.6,7.48,3.6,4.12,1.95,6.36,3.08,6.36,3.08,8.23,3.56,9,5.58,9,5.58.3.75.49,1.55.56,2.36Z"/>
</svg>